<svg fill = "#F0FFFF" id="Layer_1" data-name="Layer 1" xmlns="http://www.w3.org/2000/svg" viewBox="0 0 122.88 108.99"><defs><style>.cls-1{fill-rule:evenodd;}</style></defs><title>slow-internet-speed</title><path class="cls-1" d="M8.27,0H114.6a8.3,8.3,0,0,1,8.28,8.27V90.89a8.31,8.31,0,0,1-8.28,8.27h-8.77a49.46,49.46,0,0,0,3.14-7.8h4.71a2.34,2.34,0,0,0,1.62-.67,2.25,2.25,0,0,0,.67-1.62V20.6H7.23V89.07a2.29,2.29,0,0,0,.67,1.62,2.22,2.22,0,0,0,1.62.67h4.39a49.46,49.46,0,0,0,3.14,7.8H8.27A8.31,8.31,0,0,1,0,90.89V8.27A8.29,8.29,0,0,1,8.27,0ZM34.94,57l.19-.28-4.82.68A2.86,2.86,0,0,1,27.09,55a2.86,2.86,0,0,1,2.44-3.23L42,50h0l.23,0h0a2.83,2.83,0,0,1,2.92,2.74q.26,6.44.47,12.87a2.85,2.85,0,0,1-2.74,2.94h0A2.85,2.85,0,0,1,40,65.76c-.07-1.9-.13-3.8-.2-5.69-.41.59-.82,1.24-1.24,2A28.1,28.1,0,0,0,35,78.18a27.24,27.24,0,0,0,2,8,26.69,26.69,0,0,0,4.24,7h0a29.77,29.77,0,0,0,2.08,2.24c.72.71,1.48,1.38,2.26,2a28.23,28.23,0,0,0,5.5,3.48,26.8,26.8,0,0,0,6,2.09l.68.15v5.8l-1-.19a32.68,32.68,0,0,1-7.76-2.5,34.57,34.57,0,0,1-7-4.37c-.91-.74-1.8-1.53-2.66-2.37s-1.66-1.72-2.46-2.67a32.47,32.47,0,0,1-7.53-18.16,33.71,33.71,0,0,1,4.21-19.42c.46-.82.92-1.56,1.4-2.26Zm40.38,49.74a32.45,32.45,0,0,1-7,2.09l-1,.17V103.2l.69-.14a26.49,26.49,0,0,0,5.16-1.6,27.82,27.82,0,0,0,4.8-2.63l.59-.4,4.08,4.09-.82.59a33.78,33.78,0,0,1-6.46,3.62ZM93.57,88.56A32.78,32.78,0,0,1,89.93,95l-.59.82-4.09-4.09.41-.59a26.49,26.49,0,0,0,4.24-10l.14-.68h5.78l-.17,1a32.66,32.66,0,0,1-2.08,7.08ZM94.9,67.13c.26.94.48,1.89.65,2.83l.19,1H90l-.15-.67c-.14-.68-.31-1.35-.5-2s-.41-1.31-.65-2a32.5,32.5,0,0,0-1.36-3.15,31.8,31.8,0,0,0-1.64-2.92l-.37-.58,4.1-4.1.58.86a38.09,38.09,0,0,1,2.23,3.79A39.62,39.62,0,0,1,94,64.35c.35.93.65,1.85.91,2.78ZM77,45.28a29.22,29.22,0,0,1,5,2.88l.82.58L78.7,52.83l-.58-.39a23.75,23.75,0,0,0-3.8-2.1,24.77,24.77,0,0,0-4.13-1.4c-.65-.16-1.33-.29-2-.4s-1.37-.18-2.05-.22-1.43-.06-2.14,0a20.85,20.85,0,0,0-2.18.15h0a2.86,2.86,0,0,1-2.54-4.64,2.8,2.8,0,0,1,1.92-1c.89-.1,1.78-.16,2.68-.18s1.76,0,2.61,0,1.71.15,2.53.27,1.69.3,2.55.51A29.56,29.56,0,0,1,77,45.28ZM106.72,6.7a4.09,4.09,0,1,1-4.08,4.09,4.09,4.09,0,0,1,4.08-4.09ZM79,6.7a4.09,4.09,0,1,1-4.09,4.09A4.09,4.09,0,0,1,79,6.7Zm13.85,0a4.09,4.09,0,1,1-4.09,4.09A4.09,4.09,0,0,1,92.86,6.7Z"/></svg>