<?xml version="1.0" encoding="utf-8"?>
<!-- Svg Vector Icons : http://www.onlinewebfonts.com/icon -->
<!DOCTYPE svg PUBLIC "-//W3C//DTD SVG 1.1//EN" "http://www.w3.org/Graphics/SVG/1.1/DTD/svg11.dtd">
<svg fill = "#F0FFFF" version="1.1" xmlns="http://www.w3.org/2000/svg" xmlns:xlink="http://www.w3.org/1999/xlink" x="0px" y="0px" viewBox="0 0 1000 1000" enable-background="new 0 0 1000 1000" xml:space="preserve">
<metadata> Svg Vector Icons : http://www.onlinewebfonts.com/icon </metadata>
<g><path d="M972.3,320.8L508.1,166.1c-5.3-1.8-11-1.8-16.3,0L27.6,320.8C17.1,324.4,10,334.2,10,345.3c0,11.1,7.1,20.9,17.6,24.4l137.1,45.7v136.1c0,6.9,2.7,13.4,7.5,18.2c4.5,4.6,113.2,110.7,327.7,110.7c78,0,150.8-14,216.3-41.7c13.1-5.5,19.3-20.7,13.7-33.8c-5.5-13.1-20.7-19.2-33.8-13.7C637.1,616.3,571.1,629,500,629c-100.3,0-174.1-26-218.4-47.8c-32.8-16.1-54.7-32.4-65.3-41.2V432.7l275.5,91.9c2.7,0.9,5.4,1.3,8.1,1.3c2.7,0,5.5-0.4,8.1-1.3l275.5-91.9v46c-30,10.6-51.5,39.3-51.5,72.9c0,31.5,18.9,58.6,46,70.7l-45.2,180.9c-2,7.6-0.3,15.9,4.7,22.1c4.9,6.2,12.4,9.9,20.3,9.9h103.2c8,0,15.4-3.7,20.3-9.9c4.9-6.2,6.6-14.5,4.7-22.1l-45.3-180.9c27.1-12,46-39.2,46-70.7c0-33.6-21.6-62.3-51.6-72.9v-63.2l137.1-45.7c10.5-3.4,17.6-13.3,17.6-24.4C990,334.2,982.9,324.4,972.3,320.8L972.3,320.8L972.3,320.8z M809.4,525.8c14.2,0,25.8,11.5,25.8,25.8c0,14.3-11.6,25.8-25.8,25.8c-14.2,0-25.8-11.5-25.8-25.8C783.7,537.4,795.2,525.8,809.4,525.8L809.4,525.8z M790.8,783.7l18.6-74.2l18.6,74.2H790.8L790.8,783.7z M807.4,370.4l-303.1-50.5c-14.1-2.3-27.3,7.2-29.7,21.2c-2.3,14,7.2,27.3,21.2,29.7l207,34.5L500,472.8L117.4,345.3L500,217.7l382.7,127.5L807.4,370.4L807.4,370.4z"/></g>
</svg>